<?xml version="1.0" standalone="no"?>
<!DOCTYPE svg PUBLIC "-//W3C//DTD SVG 20010904//EN"
 "http://www.w3.org/TR/2001/REC-SVG-20010904/DTD/svg10.dtd">
<svg version="1.0" xmlns="http://www.w3.org/2000/svg"
 width="740.000000pt" height="584.000000pt" viewBox="0 0 740.000000 584.000000"
 preserveAspectRatio="xMidYMid meet">

<g transform="translate(0.000000,584.000000) scale(0.100000,-0.100000)"
fill="#000000" stroke="none">
<path d="M3660 5784 c0 -8 -10 -28 -21 -43 -12 -16 -18 -34 -15 -39 4 -6 0
-14 -7 -19 -21 -12 -49 -72 -41 -86 4 -7 3 -9 -1 -5 -11 11 -68 -90 -61 -108
3 -8 2 -12 -3 -9 -12 7 -63 -93 -54 -107 3 -7 1 -8 -5 -4 -7 4 -30 -31 -60
-91 -62 -123 -111 -214 -126 -232 -8 -11 -8 -13 1 -8 7 5 9 0 6 -13 -3 -12 -8
-18 -11 -15 -9 9 -54 -75 -48 -91 3 -8 2 -13 -3 -10 -11 7 -54 -72 -45 -86 5
-7 3 -8 -6 -3 -10 6 -12 4 -6 -11 4 -10 4 -15 0 -11 -4 4 -12 -3 -19 -16 -27
-50 -98 -183 -108 -202 -6 -11 -10 -29 -9 -40 2 -12 0 -16 -5 -10 -5 6 -28
-28 -56 -83 -26 -51 -43 -90 -36 -87 16 10 -6 -28 -25 -45 -9 -7 -29 -38 -45
-69 -15 -31 -38 -73 -50 -94 -11 -21 -21 -44 -21 -51 0 -7 -6 -19 -14 -26 -8
-6 -12 -19 -9 -27 4 -10 2 -14 -4 -10 -6 4 -17 -8 -24 -26 -7 -17 -28 -58 -46
-90 -18 -33 -30 -64 -26 -70 3 -5 2 -7 -3 -4 -6 3 -19 -14 -30 -39 -10 -24
-23 -44 -27 -44 -5 0 -5 -5 -2 -10 3 -6 -1 -17 -10 -26 -9 -9 -14 -23 -11 -31
3 -8 1 -11 -4 -8 -6 3 -26 -27 -45 -67 -54 -113 -149 -287 -156 -285 -3 1 -14
-5 -24 -13 -11 -8 -16 -10 -13 -5 4 7 -355 10 -1069 10 -591 0 -1058 -3 -1039
-7 20 -4 98 -12 173 -17 76 -5 284 -22 462 -36 179 -14 331 -23 338 -20 8 3
22 1 31 -4 9 -5 62 -11 117 -15 55 -3 244 -17 420 -31 176 -15 358 -28 405
-31 47 -3 123 -9 170 -14 157 -16 172 -14 197 25 12 18 24 44 28 57 4 13 13
30 20 38 7 8 25 38 39 65 14 28 26 43 26 35 0 -8 -15 -40 -33 -70 -18 -30 -57
-102 -86 -160 -30 -58 -55 -106 -56 -108 -2 -2 -106 8 -231 22 -499 55 -716
77 -720 73 -9 -8 -34 -332 -34 -433 0 -177 38 -404 101 -601 247 -774 983
-1369 1850 -1497 59 -9 119 -16 133 -16 25 0 26 3 22 32 -3 18 -8 78 -11 133
-3 55 -15 222 -25 370 -11 149 -54 747 -95 1330 -41 583 -77 1089 -80 1125 -2
36 -12 166 -20 290 -8 124 -22 317 -30 430 -22 301 -23 320 -13 314 8 -5 12
11 8 31 -1 6 4 4 11 -2 13 -13 32 -186 44 -398 3 -55 14 -210 25 -345 11 -135
22 -279 25 -320 3 -41 11 -127 16 -190 6 -63 12 -149 15 -190 5 -96 32 -470
39 -535 5 -51 21 -261 29 -390 3 -38 12 -162 21 -275 8 -113 18 -236 21 -275
3 -38 12 -149 20 -245 8 -96 15 -184 14 -195 0 -11 4 -74 10 -140 5 -66 16
-210 25 -320 47 -641 59 -781 68 -790 6 -7 8 -2 4 13 -3 12 -2 20 3 17 11 -7
62 93 54 107 -4 7 -4 10 1 6 10 -9 20 5 70 96 21 38 33 66 26 62 -7 -5 -9 -1
-5 8 3 9 9 14 14 11 4 -2 18 19 31 48 13 29 30 58 37 66 26 27 72 130 66 148
-4 14 -4 15 4 4 10 -14 24 8 119 199 27 52 51 97 54 100 18 16 69 122 63 131
-4 8 -3 9 4 5 8 -5 12 0 12 13 0 11 6 24 14 28 21 12 78 121 70 135 -4 6 -3 8
3 5 9 -6 59 80 55 95 -1 5 3 8 9 8 8 0 7 5 -1 15 -11 13 -10 14 4 9 11 -4 16
-1 16 11 0 9 7 23 16 32 8 9 13 22 10 30 -3 8 -1 11 4 8 10 -6 14 1 24 48 4
15 10 25 15 23 5 -3 22 20 37 52 16 31 32 59 35 62 4 3 19 31 34 63 15 31 31
60 36 63 5 3 9 12 9 20 0 9 7 22 16 31 8 9 13 22 10 30 -3 8 -2 12 2 9 12 -7
45 53 38 69 -3 8 0 14 7 12 7 -1 11 4 10 11 -2 6 2 12 9 12 6 0 8 3 5 7 -4 3
0 11 9 17 8 6 16 18 17 26 2 8 10 27 20 42 9 16 24 39 32 53 9 14 13 31 9 37
-4 7 -3 8 4 4 11 -6 14 0 11 20 0 4 4 10 9 13 18 11 73 122 66 133 -5 7 -2 8
6 3 10 -6 12 -4 7 9 -4 10 -3 15 3 11 7 -5 52 65 55 85 2 15 41 70 50 70 5 0
143 2 305 5 162 2 565 9 895 15 330 5 672 13 760 16 88 3 175 6 194 5 59 -2
25 12 -36 15 -75 4 -170 13 -209 19 -17 2 -155 16 -305 30 -151 14 -326 30
-389 36 -63 6 -135 13 -160 15 -25 2 -85 8 -135 13 -49 6 -126 12 -170 15 -44
3 -91 8 -105 12 -20 4 -22 3 -10 -5 8 -6 10 -11 5 -11 -6 0 -15 4 -21 10 -5 5
-41 12 -79 15 -98 7 -226 19 -340 31 -249 26 -297 29 -301 22 -3 -5 -13 -3
-22 4 -9 7 -13 9 -10 3 3 -6 -6 -11 -20 -11 -15 -1 -21 1 -14 3 6 3 12 12 12
20 0 13 12 36 45 90 1 2 216 -24 479 -57 262 -33 484 -60 492 -60 44 0 -17
446 -92 668 -166 497 -506 920 -959 1195 -291 176 -660 299 -974 323 l-93 7 6
-59 c3 -33 26 -327 51 -654 24 -327 47 -622 49 -655 3 -33 21 -267 41 -520 55
-722 75 -981 85 -1110 49 -590 52 -648 33 -687 -10 -21 -21 -38 -24 -38 -3 0
-11 12 -17 26 -8 16 -8 23 -2 19 7 -4 9 2 6 17 -6 26 -13 121 -21 271 -3 56
-8 113 -11 126 -3 12 -7 66 -10 120 -4 80 -38 531 -48 651 -2 19 -7 87 -10
150 -4 63 -12 156 -17 205 -6 50 -10 103 -10 118 1 15 -17 263 -38 550 -22
287 -46 603 -52 702 -7 99 -15 182 -18 185 -3 3 -6 30 -6 60 0 30 -4 107 -8
170 -4 63 -10 153 -13 200 -3 47 -8 92 -11 100 -7 22 -14 136 -13 209 1 34 -2
61 -7 58 -4 -3 -8 27 -8 66 0 40 -3 106 -8 147 -4 41 -9 102 -11 135 -11 231
-20 314 -32 319 -8 3 -14 -1 -14 -10z m-816 -2074 c-6 -6 -10 -3 -10 10 0 13
4 16 10 10 7 -7 7 -13 0 -20z m-79 -140 c-9 -16 -18 -30 -21 -30 -2 0 2 14 11
30 9 17 18 30 21 30 2 0 -2 -13 -11 -30z m-37 -65 c-6 -14 -13 -23 -15 -21 -5
5 15 46 22 46 3 0 -1 -11 -7 -25z m-42 -77 c-19 -27 -21 -19 -4 18 7 14 14 21
16 15 2 -6 -4 -21 -12 -33z m-18 -43 c-3 -3 -9 2 -12 12 -6 14 -5 15 5 6 7 -7
10 -15 7 -18z m1690 -2130 c-3 -3 -9 2 -12 12 -6 14 -5 15 5 6 7 -7 10 -15 7
-18z"/>
<path d="M1251 5285 c-12 -20 -18 -41 -15 -47 4 -6 3 -8 -3 -5 -9 6 -49 -60
-45 -75 1 -5 -3 -8 -10 -8 -6 0 -9 -3 -5 -6 3 -3 1 -11 -4 -18 -13 -15 -109
-165 -109 -170 0 -3 -23 -41 -51 -86 -28 -45 -53 -89 -57 -98 -3 -10 -12 -23
-19 -30 -7 -7 -13 -22 -13 -33 0 -11 -4 -18 -8 -15 -5 3 -21 -18 -36 -47 -43
-82 -59 -110 -83 -142 -17 -24 -19 -35 -11 -50 9 -16 8 -18 -3 -8 -10 10 -26
-9 -82 -105 -38 -64 -70 -123 -70 -129 0 -7 -2 -11 -5 -8 -5 4 -82 -121 -82
-132 0 -3 -10 -19 -22 -36 -13 -18 -22 -34 -22 -37 1 -3 -11 -23 -26 -45 -15
-22 -25 -47 -22 -55 3 -8 1 -12 -3 -8 -11 11 -38 -29 -29 -44 4 -7 3 -8 -4 -4
-14 8 -56 -70 -46 -86 4 -6 3 -8 -2 -5 -6 3 -22 -15 -37 -39 -15 -25 -22 -42
-15 -39 7 4 3 -2 -10 -12 -13 -10 -24 -26 -25 -33 -2 -8 -15 -33 -30 -55 -29
-42 -35 -61 -15 -49 7 4 8 3 4 -5 -4 -6 -11 -9 -15 -7 -11 7 -43 -52 -35 -66
4 -7 3 -8 -4 -4 -8 4 -16 -3 -22 -20 -9 -23 -7 -31 9 -47 19 -19 21 -19 45 -3
14 9 26 24 26 34 0 9 12 31 28 47 38 42 65 93 56 107 -4 6 -3 8 3 5 6 -4 18 8
27 27 9 20 25 36 38 39 13 2 219 5 458 5 388 1 435 2 434 16 -1 9 2 13 8 10 5
-3 7 -11 5 -17 -5 -13 89 -198 105 -208 5 -3 9 -9 8 -13 -5 -29 33 -31 477
-31 l451 0 -35 64 c-19 35 -48 85 -64 111 -16 26 -29 52 -29 58 0 18 -22 25
-31 11 -7 -9 -7 -5 -3 14 4 18 0 36 -10 52 -9 14 -35 60 -58 103 -22 42 -47
89 -55 105 -8 15 -19 25 -24 22 -8 -6 -13 8 -10 28 3 15 -20 47 -29 42 -6 -4
-7 1 -3 11 5 13 3 15 -7 9 -9 -5 -11 -4 -6 4 4 6 2 19 -5 27 -7 9 -14 23 -15
32 -2 8 -7 18 -11 21 -5 3 -15 21 -22 38 -7 18 -18 30 -24 26 -5 -3 -7 -1 -4
5 10 15 -3 43 -16 35 -6 -3 -7 -1 -3 6 4 6 -6 31 -22 55 -17 24 -33 54 -37 65
-3 12 -11 19 -16 16 -5 -3 -6 1 -3 9 4 10 1 16 -7 16 -7 0 -10 3 -6 6 3 3 -5
24 -19 45 -13 21 -24 43 -24 49 0 5 -5 10 -11 10 -5 0 -8 4 -5 9 3 5 -1 11 -9
15 -8 3 -15 13 -15 23 -1 26 -26 58 -34 41 -3 -7 -2 0 1 16 5 24 3 28 -10 23
-11 -4 -14 -2 -11 8 3 8 -9 40 -27 72 -19 32 -42 75 -52 96 -11 20 -23 37 -28
37 -5 0 -9 6 -9 13 0 15 -50 110 -62 118 -5 3 -9 8 -8 10 6 10 -43 98 -51 93
-5 -3 -9 -2 -8 3 3 11 -19 63 -26 63 -4 0 -3 -5 1 -12 4 -7 3 -8 -5 -4 -6 4
-9 11 -6 16 3 5 -7 34 -22 64 -19 40 -30 53 -39 46 -8 -8 -10 -4 -7 14 3 14
-2 34 -10 46 -14 21 -15 20 -36 -15z m-221 -466 c15 -28 5 -23 -15 7 -9 15
-12 23 -6 20 6 -4 16 -16 21 -27z m-156 -245 c3 -8 2 -12 -4 -9 -6 3 -10 10
-10 16 0 14 7 11 14 -7z m15 -174 c13 -27 28 -50 33 -50 5 0 8 -6 6 -13 -2 -6
8 -30 21 -52 14 -22 25 -44 25 -48 1 -4 8 -12 16 -17 8 -5 11 -10 7 -10 -10 0
82 -174 94 -178 5 -2 9 -11 9 -20 1 -22 45 -94 53 -86 4 4 5 -3 2 -15 -2 -11
0 -21 6 -21 5 0 8 -3 7 -7 -4 -21 66 -136 76 -126 4 4 4 0 0 -10 -3 -9 -15
-17 -26 -17 -10 0 -17 -3 -15 -7 4 -6 -760 0 -771 6 -1 0 9 19 23 42 15 22 35
56 46 75 10 19 27 49 38 67 10 17 27 48 37 67 11 19 23 38 28 41 5 4 5 12 1
19 -5 9 -4 11 3 6 8 -5 12 0 12 13 0 12 4 21 10 21 5 0 12 11 16 25 3 14 10
25 16 25 5 0 7 4 3 9 -3 6 0 13 8 18 13 8 95 140 110 178 4 11 12 22 16 25 5
3 18 24 30 48 12 23 25 42 29 42 4 0 18 -22 31 -50z m149 -185 c-3 -3 -9 2
-12 12 -6 14 -5 15 5 6 7 -7 10 -15 7 -18z"/>
<path d="M255 3429 c-4 -6 -5 -12 -2 -15 2 -3 7 2 10 11 7 17 1 20 -8 4z"/>
<path d="M5510 2419 c0 -6 -5 -7 -10 -4 -7 4 -9 -330 -8 -1007 l3 -1013 320 0
320 0 3 1018 c2 1012 2 1017 -18 1017 -11 0 -20 -6 -20 -12 0 -10 -2 -10 -8
-1 -10 16 -582 17 -582 2z"/>
</g>
</svg>
